<?xml version="1.0" encoding="utf-8"?>
<!-- Generator: Adobe Illustrator 28.0.0, SVG Export Plug-In . SVG Version: 6.00 Build 0)  -->
<svg version="1.1" id="Ebene_1" xmlns="http://www.w3.org/2000/svg" xmlns:xlink="http://www.w3.org/1999/xlink" x="0px" y="0px"
	 viewBox="0 0 1920 1080" style="enable-background:new 0 0 1920 1080;" xml:space="preserve">
<style type="text/css">
	.st0{fill:#C5C3EE;}
	.st1{fill:#FFFFFF;}
	.st2{fill:#EE6541;}
	.st3{fill:#F8D5CA;}
	.st4{fill:#00E47C;}
	.st5{fill:#E5A575;}
	.st6{fill:#FFD03D;}
	.st7{fill:#A75E2C;}
	.st8{fill:#1D1D1B;}
	.st9{opacity:0.5;enable-background:new    ;}
	.st10{fill:#683120;}
	.st11{fill:#F6F5F3;}
	.st12{fill:#08312A;}
	.st13{fill:#E8C99D;}
	.st14{fill:#86251B;}
	.st15{opacity:0.4;enable-background:new    ;}
	.st16{fill:#FBF9AA;}
	.st17{opacity:0.4;}
	.st18{fill:none;stroke:#000000;stroke-width:2;stroke-linecap:round;stroke-linejoin:round;}
	.st19{fill:#928BDE;}
	.st20{fill:#E18600;}
	.st21{fill:#DBA791;}
	.st22{fill:#E5E3DE;}
	.st23{opacity:0.3;enable-background:new    ;}
	.st24{fill:#5D4495;}
	.st25{fill:#BC7851;}
	.st26{fill:#D6804F;}
	.st27{fill:#F58A68;}
	.st28{fill:#B07557;}
	.st29{fill:#7E4220;}
	.st30{opacity:0.2;}
	.st31{fill:#D2F2F7;}
	.st32{fill:#F5CDB9;}
	.st33{fill:#E1B292;}
	.st34{fill:#076D7E;}
	.st35{fill:#AB7258;}
	.st36{fill:#9E634C;}
	.st37{fill:#6AD2E2;}
	.st38{fill:#915239;}
	.st39{fill:#5C453F;}
	.st40{fill:#00A664;}
	.st41{fill:#FFE667;}
</style>
<rect class="st31" width="1920" height="1080"/>
<g>
	<g>
		<g>
			<path class="st12" d="M574.5,828.2c0.2,0,0.5,0.1,0.7,0.1C574.9,828.2,574.7,828.2,574.5,828.2z"/>
			<path class="st12" d="M569,827.4c0.1,0,0.2,0,0.3,0C569.2,827.4,569.1,827.4,569,827.4z"/>
			<path class="st12" d="M575.6,828.4c0.3,0.1,0.6,0.1,1,0.2C576.3,828.5,575.9,828.4,575.6,828.4z"/>
			<path class="st12" d="M578.8,828.9c0.2,0,0.5,0.1,0.7,0.1C579.2,829,579,829,578.8,828.9z"/>
			<path class="st12" d="M580.2,829.2c0.4,0.1,0.8,0.1,1.1,0.2C580.9,829.3,580.5,829.2,580.2,829.2z"/>
			<path class="st12" d="M570.1,827.5c0.1,0,0.3,0,0.4,0.1C570.4,827.5,570.3,827.5,570.1,827.5z"/>
			<path class="st12" d="M570.7,827.5c0.2,0,0.4,0.1,0.6,0.1C571.1,827.6,570.9,827.6,570.7,827.5z"/>
			<path class="st12" d="M572.2,827.8c0.2,0,0.5,0.1,0.8,0.1C572.7,827.9,572.5,827.8,572.2,827.8z"/>
			<path class="st12" d="M582.1,829.5c0.2,0,0.4,0.1,0.6,0.1C582.5,829.6,582.3,829.6,582.1,829.5z"/>
			<path class="st12" d="M573.3,828c0.2,0,0.5,0.1,0.7,0.1C573.8,828,573.5,828,573.3,828z"/>
			<path class="st12" d="M577.1,828.6c0.3,0,0.5,0.1,0.8,0.1C577.7,828.7,577.4,828.7,577.1,828.6z"/>
			<path class="st12" d="M594.7,832c0.5,0.1,0.9,0.2,1.4,0.3C595.6,832.2,595.1,832.1,594.7,832z"/>
			<path class="st12" d="M592.4,831.5c0.4,0.1,0.9,0.2,1.3,0.3C593.3,831.7,592.8,831.6,592.4,831.5z"/>
			<path class="st12" d="M584.2,829.9c0.2,0,0.4,0.1,0.6,0.1C584.6,830,584.4,830,584.2,829.9z"/>
			<path class="st12" d="M590.3,831.1c0.3,0.1,0.6,0.1,1,0.2C590.9,831.2,590.6,831.2,590.3,831.1z"/>
			<path class="st4" d="M597.5,750.2c0,0,30.2,50.2,1.8,82.8c0,0,0,0,0,0c17.3,3.5,39.7,8.4,60.3,13.8
				c-0.8-97.2-11.7-101.9-11.7-101.9s-4.6-42.9-59.5-54.8C595.6,707.4,602.5,730.9,597.5,750.2z"/>
			<path class="st12" d="M598.5,832.8c-0.4-0.1-0.9-0.2-1.3-0.3C597.6,832.6,598.1,832.7,598.5,832.8z"/>
			<path class="st12" d="M569.7,827.4c-0.1,0-0.2,0-0.3,0C569.5,827.4,569.7,827.4,569.7,827.4z"/>
			<path class="st12" d="M588.9,830.8c-0.3-0.1-0.6-0.1-0.9-0.2C588.3,830.7,588.6,830.8,588.9,830.8z"/>
			<path class="st12" d="M586.2,830.3c0.3,0.1,0.6,0.1,0.9,0.2C586.7,830.4,586.5,830.4,586.2,830.3z"/>
			<path class="st12" d="M569.7,827.4c0.1,0,0.2,0,0.3,0C569.9,827.4,569.8,827.4,569.7,827.4z"/>
			<path class="st12" d="M571.4,827.6c0.2,0,0.4,0.1,0.6,0.1C571.8,827.7,571.6,827.7,571.4,827.6z"/>
			<path class="st12" d="M544.8,828.9c0.5,0,1.1-0.1,1.6-0.1C545.9,828.8,545.4,828.8,544.8,828.9z"/>
			<path class="st12" d="M547,828.7c0.5,0,0.9-0.1,1.4-0.1C548,828.6,547.5,828.7,547,828.7z"/>
			<path class="st12" d="M536,829.5c2.9-0.2,5.8-0.4,8.5-0.7C541.8,829.1,539,829.3,536,829.5z"/>
			<path class="st12" d="M550.8,828.4c0.5,0,1-0.1,1.5-0.1C551.8,828.3,551.3,828.4,550.8,828.4z"/>
			<path class="st12" d="M568.8,827.4c-0.1,0-0.2,0-0.4,0C568.5,827.4,568.6,827.4,568.8,827.4z"/>
			<path class="st12" d="M529,830.1c0.7-0.1,1.4-0.1,2.1-0.2C530.4,830,529.7,830,529,830.1z"/>
			<path class="st12" d="M533.7,829.7c0.6-0.1,1.3-0.1,1.9-0.1C535,829.6,534.3,829.7,533.7,829.7z"/>
			<path class="st4" d="M570.9,953.6c0,0-12,49.8-21.6,45.7c-9.6-4.2-14.2-12-14.2-18c0,0-20,1.3-21.2-28.9c0,0-7.2-4.2-4.8,15.2
				c2.1,16.7-4,36.1-16.7,33.6l47.7,70c43.8-35.7,74.4-75.5,95.6-116C618.2,959.6,595.3,962.3,570.9,953.6z"/>
			<path class="st12" d="M552.6,828.3c1.2-0.1,2.4-0.2,3.5-0.2C554.9,828.1,553.8,828.2,552.6,828.3z"/>
			<path class="st12" d="M531.4,829.9c0.7-0.1,1.4-0.1,2.1-0.2C532.8,829.8,532.1,829.8,531.4,829.9z"/>
			<path class="st12" d="M548.9,828.6c0.5,0,0.9-0.1,1.4-0.1C549.9,828.5,549.4,828.5,548.9,828.6z"/>
			<path class="st12" d="M563.5,827.6c0.8,0,1.5-0.1,2.2-0.1C565,827.5,564.3,827.5,563.5,827.6z"/>
			<path class="st12" d="M565.9,827.5c0.2,0,0.5,0,0.7,0C566.4,827.5,566.2,827.5,565.9,827.5z"/>
			<path class="st12" d="M566.9,827.4c0.2,0,0.4,0,0.5,0C567.3,827.4,567.1,827.4,566.9,827.4z"/>
			<path class="st12" d="M567.7,827.4c0.2,0,0.3,0,0.4,0C568,827.4,567.9,827.4,567.7,827.4z"/>
			<path class="st4" d="M477.6,979.4c-5.3-28.2-1.1-76.2,2.6-79.8c4.8-4.8,29.5-28.3,29.5-28.3h-40.4c0,0-37.2,21.9-54.6,15.7
				l-8.5-12.4l57.6-39c0,0,35.1-3.1,65-5.5c-23.5,1.9-50.3,4.2-60.6,5.1c-6.4-14.8-14.3-37.9-11.6-57.9c0,0-24.1-15-10.1-62.3
				l0.7-1.1l5.6-12.6c0,0-0.2,0-0.5,0c-3.9-0.2-30.2,0.4-37.5,51.1c0.2,0.4,0.3,0.8,0.5,1.2c-17.9-41.4-42.7-54.9-42.7-54.9
				c-1.5-1.1-3.1-1.9-4.7-2.4c-11.3-6.8-16.1-20.4-17.2-34l-0.1,0.5c0-0.1,0-0.3,0-0.4l-0.2,0.1c0,0,0,0.3,0,0.9l-12.8,48l2-0.7
				l0.7-0.2l12-4.3c0,1.1,0.1,2.2,0.1,3.3c0,0.4,0,0.9,0,1.3c0,0.7,0,1.3,0.1,2c0,0.7,0,1.5,0.1,2.3c0,0.4,0,0.7,0,1.1
				c0,0.9,0,1.9,0.1,2.8c0,0.2,0,0.4,0,0.5c0,1.1,0,2.2,0.1,3.2c0,0,0,0.1,0,0.1c0.1,3.5,0.1,7,0.1,10.5c0.3,30.9-0.5,64.4-4.6,83.5
				c-1.8,8.1-7.8,14.7-16,16.6c-27.1,7-96.8,22.7-101.9,1.6c0,0,21.7-25.2,8.9-41.5c0,0-18-40.6-8.9-73c0,0-29.7-22.5-7.2-54.9
				c2.1-3.1,4.3-5.9,6.4-8.5c-17.3,2.5-34.4,6.1-51.3,10.9c-13.3,3.8-65,93.2-64.3,119.6c0.6,24.8-26,43.6-28.2,96L397,861
				l81.6,119.9L477.6,979.4z"/>
			<path class="st12" d="M562.3,827.7c0.3,0,0.6,0,0.9,0C562.9,827.6,562.6,827.6,562.3,827.7z"/>
			<path class="st12" d="M556.2,828c0.5,0,1-0.1,1.5-0.1C557.1,828,556.7,828,556.2,828z"/>
			<path class="st12" d="M558,827.9c0.4,0,0.8,0,1.1-0.1C558.7,827.9,558.4,827.9,558,827.9z"/>
			<path class="st12" d="M559.6,827.8c0.3,0,0.6,0,0.9-0.1C560.2,827.8,559.9,827.8,559.6,827.8z"/>
			<path class="st12" d="M561,827.7c0.3,0,0.6,0,0.9-0.1C561.6,827.7,561.3,827.7,561,827.7z"/>
		</g>
		<g>
			<path class="st19" d="M915.5,535.3c-0.8,0.9-1.5,1.8-2.3,2.7C914,537,914.8,536.2,915.5,535.3L915.5,535.3z"/>
			<path class="st19" d="M725.1,918c-11.2,19.1-27.6,39.1-51.5,57.3l44.4,26l-13.6,78.5l132.8,0l333.5-0.1h0l0,0l0,0
				c0,0,18.9-166.5,16.2-199.1c-2.7-32.4,2.7-108.2,0-190.6c-2.7-82.5-54.1-106.8-71.7-111c-15.5-3.7-99-55.1-118.5-67.2
				c-8,16.9-48.3,79.7-48.3,79.7l-32.4,9.9l17.1,20.8L819.4,882.5c-9.7-5.7-65.2-38.4-78-47.1"/>
		</g>
		<g>
			<path class="st19" d="M915.5,535.3c-0.8,0.9-1.5,1.8-2.3,2.7C914,537,914.8,536.2,915.5,535.3L915.5,535.3z"/>
			<path class="st34" d="M725.1,918c-11.2,19.1-27.6,39.1-51.5,57.3l44.4,26l-13.6,78.5l132.8,0l333.5-0.1h0l0,0l0,0
				c0,0,18.9-166.5,16.2-199.1c-2.7-32.4,2.7-108.2,0-190.6c-2.7-82.5-54.1-106.8-71.7-111c-15.5-3.7-99-55.1-118.5-67.2
				c-8,16.9-48.3,79.7-48.3,79.7l-32.4,9.9l17.1,20.8L819.4,882.5c-9.7-5.7-65.2-38.4-78-47.1"/>
		</g>
		<g>
			<path class="st34" d="M672.5,850.3c11.5,3.3,22,6.7,29.8,10c1.5-10.2,2.4-19.6,2.7-28.1c3.8-118.2,20-195.5,38.8-239.5
				c-23.7,8.8-61.9,29.6-62.8,72.8C680.4,697.8,689,769.3,672.5,850.3z"/>
		</g>
		<g>
			<path class="st1" d="M705,832.1c-0.3,8.5-1.2,18-2.7,28.1c5.1,2.1,9.1,4.2,11.6,6.2l21.1,1.3l47.4-239.4l2.9-81.3
				C755.3,545.3,711.5,627.7,705,832.1z"/>
		</g>
		<path class="st7" d="M725.1,918l10-50.3l-21.1-1.3c-21.1-16.3-138.1-38.5-144.2-39c-6.1-0.6-105.9,8.1-105.9,8.1l-57.6,39
			l8.5,12.4c17.4,6.2,54.6-15.7,54.6-15.7h40.4c0,0-24.7,23.5-29.5,28.3c-3.6,3.6-7.9,51.6-2.6,79.8l14.8,21.7
			c12.6,2.4,18.8-17,16.7-33.6c-2.4-19.3,4.8-15.2,4.8-15.2c1.3,30.2,21.2,28.9,21.2,28.9c0,6.1,4.6,13.9,14.2,18
			c9.6,4.2,21.6-45.7,21.6-45.7c45.2,16.1,85.4-6.7,95-8.5c4.4-0.8,20,1.9,35.4,5C711.1,939.4,718.9,928.5,725.1,918z"/>
		<g>
			<path class="st22" d="M747.7,839.5c18.1-95.6,34.8-183.4,34.8-183.4v-27.8c-0.1,0.1-0.1,0.1-0.2,0.2l-41,206.9
				C743,836.5,745.1,837.8,747.7,839.5z"/>
			<path class="st22" d="M718,1001.3l-8.4-4.9l-16.5,83.4l11.3,0c-0.2,0,0.1,0,0,0C704.3,1079.8,709.4,1047.8,718,1001.3z"/>
		</g>
		<g>
			<path class="st5" d="M827.2,566.3c18.9-19.9,55-57.6,71.9-74.8c22-22.2,40.1-35.4,34.7-41.1c-0.7-0.6-1.4-1-1.8-1.2
				c-0.2-0.1-0.5-0.2-0.8-0.3c0,0-15.2-21.1-61.9-101.2c-46.9-80.3-91.8-18.7-91.8-18.7c-4.3-36.1-67.9-62.3-67.9-62.3l-39.8-43.3
				c-55.3,9-92,83.8-92.9,85.7c0.5,2.5,9.6,49.1,15.9,72.9c0,0,0-0.1,0-0.1c0,0,13.4-9.7,14.4-3.5s-11.7,12.6-11.7,12.6l-0.1,0
				c7.4,19.7,25.6,31.5,25.6,31.5s-1.8,5.1,0,27.9c1.8,22.8,13.6,15.3,18,16.3c4.5,1,41.5,33.4,46,50c4.5,16.4,12.3,31.6,24.9,36.1
				c12.6,4.5,63.1-18.7,63.1-18.7L815,579C815.6,577.5,820.1,572.9,827.2,566.3z"/>
			<path class="st5" d="M927.1,441.2c2.5,4.8,4.1,7.6,4.1,7.6s0.1,0,0.1,0C930.6,447.5,929.1,444.8,927.1,441.2z"/>
		</g>
		<path class="st3" d="M287.8,528.2c-1,44.1,12.6,52.2,14.4,60.4c1.8,8.1,14.4,27,33.4,53.2c8.2,11.4,12,17.2,15.1,20.1
			c0,0.1,0,0.3,0,0.4c0,0,0,0,0,0c0,0.1,0,0.3,0,0.4l0.1-0.5c1,13.7,5.8,27.2,17.2,34c1.6,0.5,3.2,1.3,4.7,2.4
			c0,0,24.8,13.5,42.7,54.9c-0.2-0.4-0.3-0.8-0.5-1.2c7.3-50.7,33.5-51.3,37.5-51.1l0,0l5.3-7.6c14.4-22,10.7-50.5,10.7-50.5
			l1.7-50.8c6.3-19.6,5.9-39.9,5.9-39.9c18.8,14.5,32.4-14.4,32.6-14.2l-32.4-49.7c0,0-113.7-85.6-158.7-66.7S288.8,484,287.8,528.2
			z"/>
		<path class="st11" d="M783.2,620.7c0-0.2,0-0.4,0.1-0.6c0.1-0.6,0.1-1.1,0.2-1.7c0-0.3,0.1-0.6,0.1-0.8c0.1-0.5,0.1-1,0.2-1.5
			c0-0.3,0.1-0.6,0.1-0.9c0.1-0.5,0.1-0.9,0.2-1.4c0-0.3,0.1-0.6,0.1-0.9c0.1-0.4,0.1-0.9,0.2-1.3c0.1-0.3,0.1-0.6,0.2-0.9
			c0.1-0.4,0.2-0.8,0.2-1.2c0.1-0.3,0.1-0.6,0.2-0.9c0.1-0.4,0.2-0.8,0.2-1.2c0.1-0.3,0.1-0.6,0.2-0.9c0.1-0.4,0.2-0.7,0.3-1.1
			c0.1-0.3,0.1-0.6,0.2-0.8c0.1-0.4,0.2-0.7,0.3-1.1c0.1-0.3,0.1-0.5,0.2-0.8c0.1-0.3,0.2-0.7,0.3-1c0.1-0.3,0.1-0.5,0.2-0.8
			c0.1-0.3,0.2-0.6,0.3-0.9c0.1-0.3,0.2-0.5,0.2-0.7c0.1-0.3,0.2-0.6,0.3-0.9c0.1-0.2,0.2-0.5,0.2-0.7c0.1-0.3,0.2-0.6,0.3-0.8
			c0.1-0.2,0.2-0.5,0.3-0.7c0.1-0.3,0.2-0.5,0.3-0.8c0.1-0.2,0.2-0.4,0.3-0.7c0.1-0.2,0.2-0.5,0.3-0.7c0.1-0.2,0.2-0.4,0.3-0.6
			c0.1-0.2,0.2-0.5,0.3-0.7c0.1-0.2,0.2-0.5,0.3-0.7c0.1-0.3,0.3-0.6,0.4-0.9c0.1-0.3,0.3-0.6,0.4-0.8c0.1-0.2,0.2-0.3,0.3-0.5
			c0.1-0.2,0.2-0.4,0.4-0.6c0.1-0.2,0.2-0.3,0.3-0.5c0.1-0.2,0.2-0.4,0.4-0.6c0.1-0.2,0.2-0.3,0.3-0.4c0.1-0.2,0.2-0.4,0.4-0.6
			c0.1-0.1,0.2-0.3,0.3-0.4c0.1-0.2,0.2-0.3,0.4-0.5c0.1-0.1,0.2-0.3,0.3-0.4c0.1-0.2,0.3-0.3,0.4-0.5c0.1-0.1,0.2-0.2,0.3-0.4
			c0.1-0.2,0.3-0.3,0.4-0.5c0.1-0.1,0.2-0.2,0.3-0.3c0.1-0.1,0.3-0.3,0.4-0.4c0.1-0.1,0.2-0.2,0.3-0.3c0.1-0.1,0.3-0.3,0.4-0.4
			c0.1-0.1,0.2-0.2,0.3-0.3c0.1-0.1,0.3-0.3,0.4-0.4c0.1-0.1,0.2-0.2,0.3-0.2c0.1-0.1,0.3-0.2,0.4-0.4c0.1-0.1,0.2-0.1,0.3-0.2
			c0.1-0.1,0.3-0.2,0.4-0.3c0.1-0.1,0.2-0.1,0.3-0.2c0.2-0.1,0.3-0.2,0.5-0.3c0.1-0.1,0.2-0.1,0.2-0.2c0.2-0.1,0.3-0.2,0.5-0.3
			c0.1,0,0.1-0.1,0.2-0.1c0.2-0.1,0.4-0.2,0.6-0.3c0,0,0.1-0.1,0.1-0.1c0.2-0.1,0.4-0.2,0.6-0.3c0,0,0,0,0,0
			c0.7-0.3,1.4-0.6,2.1-0.8c0,0,0,0,0,0c0.2-0.1,0.4-0.1,0.7-0.2c0,0,0.1,0,0.1,0c0.2,0,0.4-0.1,0.6-0.1c0,0,0.1,0,0.1,0
			c0.2,0,0.4-0.1,0.5-0.1c0,0,0.1,0,0.1,0c0.2,0,0.3-0.1,0.5-0.1c0.1,0,0.1,0,0.2,0c0.2,0,0.3,0,0.5-0.1c0.1,0,0.1,0,0.2,0
			c0.2,0,0.3,0,0.5,0c0.1,0,0.1,0,0.2,0c0.1,0,0.3,0,0.4,0c0,0,0.1,0,0.1,0c0.1,0,0.3,0,0.4,0c0,0,0.1,0,0.1,0c0.1,0,0.3,0,0.4,0
			c0,0,0.1,0,0.1,0c0.1,0,0.3,0,0.4,0c0,0,0.1,0,0.1,0c0.1,0,0.3,0,0.4,0c0,0,0.1,0,0.1,0c0.1,0,0.3,0,0.4,0c0,0,0.1,0,0.1,0
			c0.1,0,0.3,0,0.4,0.1c0,0,0,0,0,0c0.6,0.1,1.2,0.2,1.6,0.4c0,0,0,0,0,0c0.1,0,0.2,0.1,0.3,0.1c0,0,0.1,0,0.1,0
			c0.1,0,0.1,0,0.2,0.1c0,0,0.1,0,0.1,0c0.1,0,0.1,0,0.1,0c0,0,0.1,0,0.1,0c0,0,0.1,0,0.1,0c0.1,0,0.1,0,0.1,0.1c0,0,0,0,0.1,0
			c0.1,0,0.1,0,0.1,0.1c0,0,0,0,0,0c0.1,0,0.1,0,0.1,0.1l-29.5-31.8l-2.7,80.9C782.7,625.5,782.9,623,783.2,620.7z"/>
		<path class="st7" d="M931.4,448.9c-0.7-1.4-2.2-4-4.3-7.6c2.5,4.8,4.1,7.6,4.1,7.6s-15.2-21.1-61.9-101.2
			c-46.9-80.3-91.8-18.7-91.8-18.7c-4.3-36.1-67.9-62.3-67.9-62.3l-39.8-43.3c-55.3,9-92,83.8-92.9,85.7c0.5,2.5,9.6,49.1,15.9,72.9
			c0,0,0-0.1,0-0.1c0,0,13.4-9.7,14.4-3.5s-11.7,12.6-11.7,12.6l-0.1,0c7.4,19.7,25.6,31.5,25.6,31.5s-1.8,5.1,0,27.9
			c1.8,22.8,13.6,15.3,18,16.3c4.5,1,41.5,33.4,46,50c4.5,16.4,12.3,31.6,24.9,36.1c12.6,4.5,63.1-18.7,63.1-18.7L815,579
			c3-7.7,112.6-99.1,121-111.4S931.4,448.9,931.4,448.9z"/>
		<g>
			<path class="st14" d="M354.4,606.1c0.8,0.5,2.4-4.2,11-2.1c8.6,1.9,34.2-4.2,34.2-4.2s-15.2,23.8-29.1,26.7
				c-14,2.9-28.1,4.5-43.6-22.2c0,0,12.1,1.8,15.2,1.3C345,605.2,347.3,602.6,354.4,606.1L354.4,606.1z"/>
		</g>
		<g>
			<path d="M344,583.6c-2.8,0-5.5-0.7-7.5-2.6c-1.4-0.4-7-1.9-8.4-4.6c-0.4-0.8-0.5-1.6-0.2-2.4c0.2-0.5,0.8-0.8,1.3-0.6
				c0.5,0.2,0.8,0.8,0.6,1.3c-0.1,0.3-0.1,0.5,0.1,0.8c0.9,1.6,5,3.1,7.4,3.6c0.2,0,0.3,0.1,0.5,0.3c5.6,5.6,19.1-1.4,19.3-1.5
				c0.1-0.1,0.3-0.1,0.4-0.1c4-0.1,6.9-1.1,8.3-2.9c1.3-1.7,0.9-3.6,0.9-3.7c-0.1-0.5,0.2-1.1,0.7-1.2c0.5-0.1,1.1,0.2,1.2,0.7
				c0,0.1,0.7,2.9-1.2,5.4c-1.7,2.3-5,3.5-9.6,3.7C356.4,580.5,349.9,583.6,344,583.6z"/>
		</g>
		<path d="M413.7,520.1c-32.5-7.7-46.5,4.2-47,4.7c-0.4,0.4-0.5,1-0.1,1.4c0.2,0.2,0.5,0.3,0.8,0.3c0.2,0,0.5-0.1,0.7-0.2
			c0,0,3.4-3,10.7-4.9c2.3-0.6,5.1-1.2,8.4-1.5c-2,1.1-3.3,3.3-3.3,5.7c0,3.6,2.9,6.5,6.5,6.5s6.5-2.9,6.5-6.5c0-2.7-1.6-5-3.9-6
			c5.6,0,12.4,0.6,20.3,2.5c0.5,0.1,1.1-0.2,1.2-0.7C414.5,520.7,414.2,520.2,413.7,520.1z"/>
		<path d="M328.7,524.6c-0.7-0.4-17.3-9.6-37.8,0c-0.5,0.2-0.7,0.8-0.5,1.3c0.2,0.4,0.5,0.6,0.9,0.6c0.1,0,0.3,0,0.4-0.1
			c4.2-2,8.3-3.1,12.1-3.6c-1.5,1.2-2.5,3-2.5,5.1c0,3.6,2.9,6.5,6.5,6.5s6.5-2.9,6.5-6.5c0-2.3-1.2-4.4-3-5.5
			c9.7,0.4,16.2,3.9,16.3,4c0.5,0.3,1.1,0.1,1.4-0.4C329.3,525.5,329.2,524.9,328.7,524.6z"/>
		<g class="st23">
			<path d="M989.8,978.1c-19.8-5.4-162.5-91.5-162.5-91.5L948,915.6c13.4,3.2,26.8-5.3,29.7-18.7c7.2-33.4,17.9-95.8,13.1-155.7
				l40.6,210.7L989.8,978.1L989.8,978.1z"/>
		</g>
		<g>
			<path d="M931.2,448.9c0,0-38.6-68.5-41-111S900.6,154,766.3,144.1S524.7,266.7,541.8,306.5c0,0,19,20.8,35.1,2.7
				c0,0,36.9-76.6,92.9-85.7l39.8,43.3c0,0,63.5,26.2,67.9,62.3c0,0,44.9-61.6,91.8,18.7C916,427.8,931.2,448.9,931.2,448.9z"/>
		</g>
		<g>
			<path d="M814.5,493c-0.2,0-0.5-0.1-0.7-0.3c-0.4-0.4-0.4-1,0-1.4c1.4-1.4,2.7-2.8,3.9-4c10.7-11.1,14-14.4,25.7-31
				c12.5-17.7-4.4-39.3-4.6-39.5c-0.3-0.4-0.3-1.1,0.2-1.4c0.4-0.3,1.1-0.3,1.4,0.2c0.2,0.2,18,23,4.7,41.9
				c-11.8,16.7-15.1,20.1-25.9,31.3c-1.2,1.2-2.5,2.5-3.9,4C815,492.9,814.8,493,814.5,493z"/>
		</g>
		<g>
			<path class="st29" d="M661.4,485.3c0,0,0-4.2,6.5-3.7c0,0,0.3-6.9,17.6-10.4c20.4-4.2,44.2-20.1,44.2-20.1s-36.4,65.3-53.5,50.5
				L664.1,488L661.4,485.3z"/>
		</g>
		<g>
			<path d="M571,954.6c-0.1,0-0.2,0-0.2,0c-0.5-0.1-0.9-0.7-0.7-1.2c0-0.2,4.3-17.5,7.2-28.3c3-11.1,36.3-29.4,37.7-30.2
				c0.5-0.3,1.1-0.1,1.4,0.4c0.3,0.5,0.1,1.1-0.4,1.4c-0.1,0-8.7,4.7-17.5,10.7c-11.5,7.7-18.1,14.1-19.3,18.3
				c-2.8,10.7-7.1,28.1-7.2,28.2C571.9,954.2,571.5,954.6,571,954.6z"/>
		</g>
		<g>
			<path d="M652.1,941c-0.2,0-0.3,0-0.5-0.1c-1.2-0.7-29.8-17.4-37-25.6c-0.4-0.4-0.3-1,0.1-1.4c0.4-0.4,1-0.3,1.4,0.1
				c7,7.9,36.2,25,36.5,25.2c0.5,0.3,0.6,0.9,0.4,1.4C652.8,940.8,652.5,941,652.1,941z"/>
		</g>
		<g>
			<path d="M534.9,982.2c-0.1,0-0.2,0-0.2,0c-0.5-0.1-0.9-0.7-0.7-1.2c0.1-0.5,13.1-51.2,14.8-66.3c1.7-15.3,28.7-35.4,31-37
				c25.4-31.3,40-28.6,40.7-28.5c0.5,0.1,0.9,0.6,0.8,1.2c-0.1,0.5-0.6,0.9-1.2,0.8c-0.2,0-14.3-2.3-38.8,27.9
				c-0.1,0.1-0.1,0.1-0.2,0.2c-0.3,0.2-28.6,21-30.2,35.7c-1.7,15.2-14.7,66-14.9,66.6C535.8,981.9,535.4,982.2,534.9,982.2z"/>
		</g>
		<g>
			<path d="M512.1,953.3C512.1,953.3,512.1,953.3,512.1,953.3c-0.6,0-1-0.5-1-1c0-0.3,0.3-28.5-0.2-41.5
				c-0.5-13.3,39.9-43.9,42.5-45.8c29-31.4,42.1-25.6,42.6-25.4c0.5,0.2,0.7,0.8,0.5,1.3c-0.2,0.5-0.8,0.7-1.3,0.5
				c-0.2-0.1-12.6-5.1-40.4,25c0,0-0.1,0.1-0.1,0.1c-11.7,8.8-42.1,33.9-41.8,44.2c0.5,13,0.2,41.3,0.2,41.6
				C513.1,952.8,512.7,953.3,512.1,953.3z"/>
		</g>
		<g>
			<path d="M509.6,872c-0.3,0-0.5-0.1-0.7-0.3c-0.4-0.4-0.4-1,0-1.4c1.8-1.8,43.6-44.2,60.7-44.2c0,0,0.1,0,0.1,0c0.6,0,1,0.5,1,1
				c0,0.5-0.5,1-1,1c0,0-0.1,0-0.1,0c-16.2,0-58.8,43.2-59.2,43.6C510.1,871.9,509.8,872,509.6,872z"/>
		</g>
		<g>
			<path d="M433.2,851.1c-0.6,0-1-0.4-1-1c-0.1-33.8-5.5-82-30.2-119.7c-14.8-22.6-29.7-30.8-29.8-30.9c0,0-0.1,0-0.1-0.1
				c-14.5-10.8-33.4,12.2-33.6,12.4c-0.3,0.4-1,0.5-1.4,0.1c-0.4-0.3-0.5-1-0.1-1.4c0.2-0.3,5-6.2,11.9-10.8
				c9.3-6.2,17.7-6.9,24.4-2c1.2,0.7,15.7,9,30.4,31.4c25,38.2,30.5,86.9,30.6,121C434.2,850.6,433.8,851.1,433.2,851.1
				C433.2,851.1,433.2,851.1,433.2,851.1z"/>
		</g>
		<g>
			<path class="st26" d="M409.5,499.8c-9.7,0-19.5,1.1-29.1,2.9c-8.3,1.6-17.9,2.4-17.1-2.9c1.4-9.3,41.8-12.9,64.7,0H409.5
				L409.5,499.8z"/>
		</g>
		<g>
			<polygon points="546,1079.8 397,861 -0.1,889.7 -0.1,1079.8 			"/>
		</g>
		<g>
			<path d="M629.8,357.9c0,0,8.8-20.3,33.5-25.2c24.7-4.9,39.1,0,39.1,0s-37.8,6.2-42.9,11.5C654.5,349.4,631.7,374,629.8,357.9z"/>
		</g>
		<g>
			<path d="M592.9,382c0,0,13.4-9.7,14.4-3.5s-11.7,12.6-11.7,12.6l-0.8-0.6C592.1,388.5,591.3,384.9,592.9,382L592.9,382L592.9,382
				z"/>
		</g>
		<path d="M820.9,374.1c0.3,0.1,4.6,2.5,10.4,2.5c2.9,0,6.3-0.6,9.6-2.4c10-5.3,16.4-18.9,19.2-40.5c-0.6-0.8-1.2-1.6-1.7-2.3
			c-2.5,21.8-8.9,35.9-18.4,41c-9,4.8-18,0-18.1-0.1c-0.5-0.3-1.1-0.1-1.4,0.4C820.2,373.2,820.4,373.8,820.9,374.1z"/>
		<g>
			<path d="M648.6,386.4c-0.1,0.5,0.3,1.1,0.8,1.2c0.1,0,0.1,0,0.2,0c0.5,0,0.9-0.3,1-0.8c0-0.1,1.2-5.9,7.5-11.8
				c-0.5,1.1-0.8,2.3-0.8,3.5c0,4.5,3.6,8.1,8.1,8.1c0,0,0,0,0.1,0c-3-5.5-6.1-10.3-8.5-13.5C649.9,379.5,648.7,386,648.6,386.4z"/>
			<path d="M689.2,360.6c-15.2,1.7-24.8,6.3-30.8,11.3c2.5,3.4,5.9,8.6,9.2,14.5c3.4-1,5.9-4.1,5.9-7.8c0-4.5-3.6-8.1-8.1-8.1
				c-0.5,0-1,0.1-1.4,0.1c5.8-3.6,13.9-6.6,25.5-7.9c0.5-0.1,0.9-0.6,0.9-1.1S689.8,360.5,689.2,360.6z"/>
		</g>
		<path d="M622.2,457.4c-0.6,0.5-1.2,1.1-1.5,1.2c0,0,0,0,0,0c0,0,0,0-0.1,0c-5.4,2.7-13.1-2.3-18.5-7c-6.2-5.3-11.5-11.9-12.6-13.6
			c-0.1-0.2-10.5-17.2-3.2-28.1c3.6-5.4,8.9-7.9,15.7-7.4c5.2,0.3,9.3,2.3,9.3,2.3v0c0.1,0.1,8.5,5,10.2,15.1
			c0.2-1.5,0.4-3.4,0.7-5.1c-1.8-4.6-4.9-7.8-7.1-9.7c0,0,0.1,0,0.1-0.1c0.7-0.5,6.1-5.3,8.3-7.2c4.3,10,11.8,18.9,15.4,21.9
			c4.9,4.2,13.9,10.7,22.6,11.1c0.2,0.1,0.3,0.1,0.5,0.1c0,0,4.7-0.2,6.4,2.5c1.2,1.8,0.9,4.5-0.9,8.1
			c-5.7,11.9-17.1,13.3-17.2,13.3c-0.4,0-0.7,0.3-0.8,0.7c0,0.1-2.4,6.8-10.6,10.6c-0.5,0.2-0.7,0.8-0.5,1.3
			c0.2,0.4,0.5,0.6,0.9,0.6c0.1,0,0.3,0,0.4-0.1c7.7-3.5,10.7-9.3,11.5-11.2c2.6-0.4,12.7-2.9,18.2-14.4c2.1-4.3,2.3-7.7,0.7-10.1
			c-0.7-1.1-1.7-1.8-2.7-2.3c2.8-1,5.3-2.9,7.3-5.7c10.3-14.3-12.4-48.5-18.4-55.6l110.5-62.9c-0.4-0.5-0.9-1-1.3-1.6l-110.8,63
			c-3-1.7-18.4-9.3-30.2,4.7c-5.7,6.7-5,15.6-1.8,23.8c-2.9,2.6-8.1,7.2-8.7,7.6c-0.2,0.1-0.2,0.3-0.3,0.5c-0.8-0.6-1.3-0.9-1.3-0.9
			c-0.2-0.1-18-8.5-27.6,5.8c-8,12,3.1,30.1,3.2,30.3c1.1,1.8,6.5,8.5,13,14c6.4,5.5,11.9,8.2,16.4,8.2c1.5,0,2.9-0.3,4.2-0.9
			c0,0,0,0,0,0c0,0,0,0,0,0c0,0,0.1,0,0.1,0c0,0,0,0,0,0c0.4-0.2,0.9-0.5,1.4-0.9 M672.9,423.2c-2.4,3.3-5.4,5.2-9,5.6
			c-8.7,1-18.6-6.2-23.8-10.6c-3.3-2.8-9.9-10.7-14-19.2c-3.6-7.5-6.5-18-0.1-25.7c4.9-5.9,10.5-7.6,15.4-7.6
			c6.5,0,11.8,3.1,12.6,3.6C659.2,374.6,682.3,410.2,672.9,423.2z"/>
		<path class="st11" d="M870.1,611.1c7.1-19.1,12.6-32.9,15.3-38.1c13.9-26.5,78.6-77.4,65.3-111.6c0,0,0,0,0,0
			c-0.2-0.6-0.5-1.3-0.7-1.9c-4.3-13.6-18.8-10.7-18.8-10.7c11.8,4.5-7.7,18-32.1,42.6c-23.6,23.9-84.1,87.7-84.1,87.7l42.3,49.2
			L870.1,611.1z"/>
		<path class="st11" d="M783.2,620.7c0-0.2,0-0.4,0.1-0.6c0.1-0.6,0.1-1.1,0.2-1.7c0-0.3,0.1-0.6,0.1-0.8c0.1-0.5,0.1-1,0.2-1.5
			c0-0.3,0.1-0.6,0.1-0.9c0.1-0.5,0.1-0.9,0.2-1.4c0-0.3,0.1-0.6,0.1-0.9c0.1-0.4,0.1-0.9,0.2-1.3c0.1-0.3,0.1-0.6,0.2-0.9
			c0.1-0.4,0.2-0.8,0.2-1.2c0.1-0.3,0.1-0.6,0.2-0.9c0.1-0.4,0.2-0.8,0.2-1.2c0.1-0.3,0.1-0.6,0.2-0.9c0.1-0.4,0.2-0.7,0.3-1.1
			c0.1-0.3,0.1-0.6,0.2-0.8c0.1-0.4,0.2-0.7,0.3-1.1c0.1-0.3,0.1-0.5,0.2-0.8c0.1-0.3,0.2-0.7,0.3-1c0.1-0.3,0.1-0.5,0.2-0.8
			c0.1-0.3,0.2-0.6,0.3-0.9c0.1-0.3,0.2-0.5,0.2-0.7c0.1-0.3,0.2-0.6,0.3-0.9c0.1-0.2,0.2-0.5,0.2-0.7c0.1-0.3,0.2-0.6,0.3-0.8
			c0.1-0.2,0.2-0.5,0.3-0.7c0.1-0.3,0.2-0.5,0.3-0.8c0.1-0.2,0.2-0.4,0.3-0.7c0.1-0.2,0.2-0.5,0.3-0.7c0.1-0.2,0.2-0.4,0.3-0.6
			c0.1-0.2,0.2-0.5,0.3-0.7c0.1-0.2,0.2-0.5,0.3-0.7c0.1-0.3,0.3-0.6,0.4-0.9c0.1-0.3,0.3-0.6,0.4-0.8c0.1-0.2,0.2-0.3,0.3-0.5
			c0.1-0.2,0.2-0.4,0.4-0.6c0.1-0.2,0.2-0.3,0.3-0.5c0.1-0.2,0.2-0.4,0.4-0.6c0.1-0.2,0.2-0.3,0.3-0.4c0.1-0.2,0.2-0.4,0.4-0.6
			c0.1-0.1,0.2-0.3,0.3-0.4c0.1-0.2,0.2-0.3,0.4-0.5c0.1-0.1,0.2-0.3,0.3-0.4c0.1-0.2,0.3-0.3,0.4-0.5c0.1-0.1,0.2-0.2,0.3-0.4
			c0.1-0.2,0.3-0.3,0.4-0.5c0.1-0.1,0.2-0.2,0.3-0.3c0.1-0.1,0.3-0.3,0.4-0.4c0.1-0.1,0.2-0.2,0.3-0.3c0.1-0.1,0.3-0.3,0.4-0.4
			c0.1-0.1,0.2-0.2,0.3-0.3c0.1-0.1,0.3-0.3,0.4-0.4c0.1-0.1,0.2-0.2,0.3-0.2c0.1-0.1,0.3-0.2,0.4-0.4c0.1-0.1,0.2-0.1,0.3-0.2
			c0.1-0.1,0.3-0.2,0.4-0.3c0.1-0.1,0.2-0.1,0.3-0.2c0.2-0.1,0.3-0.2,0.5-0.3c0.1-0.1,0.2-0.1,0.2-0.2c0.2-0.1,0.3-0.2,0.5-0.3
			c0.1,0,0.1-0.1,0.2-0.1c0.2-0.1,0.4-0.2,0.6-0.3c0,0,0.1-0.1,0.1-0.1c0.2-0.1,0.4-0.2,0.6-0.3c0,0,0,0,0,0
			c0.7-0.3,1.4-0.6,2.1-0.8c0,0,0,0,0,0c0.2-0.1,0.4-0.1,0.7-0.2c0,0,0.1,0,0.1,0c0.2,0,0.4-0.1,0.6-0.1c0,0,0.1,0,0.1,0
			c0.2,0,0.4-0.1,0.5-0.1c0,0,0.1,0,0.1,0c0.2,0,0.3-0.1,0.5-0.1c0.1,0,0.1,0,0.2,0c0.2,0,0.3,0,0.5-0.1c0.1,0,0.1,0,0.2,0
			c0.2,0,0.3,0,0.5,0c0.1,0,0.1,0,0.2,0c0.1,0,0.3,0,0.4,0c0,0,0.1,0,0.1,0c0.1,0,0.3,0,0.4,0c0,0,0.1,0,0.1,0c0.1,0,0.3,0,0.4,0
			c0,0,0.1,0,0.1,0c0.1,0,0.3,0,0.4,0c0,0,0.1,0,0.1,0c0.1,0,0.3,0,0.4,0c0,0,0.1,0,0.1,0c0.1,0,0.3,0,0.4,0c0,0,0.1,0,0.1,0
			c0.1,0,0.3,0,0.4,0.1c0,0,0,0,0,0c0.6,0.1,1.2,0.2,1.6,0.4c0,0,0,0,0,0c0.1,0,0.2,0.1,0.3,0.1c0,0,0.1,0,0.1,0
			c0.1,0,0.1,0,0.2,0.1c0,0,0.1,0,0.1,0c0.1,0,0.1,0,0.1,0c0,0,0.1,0,0.1,0c0,0,0.1,0,0.1,0c0.1,0,0.1,0,0.1,0.1c0,0,0,0,0.1,0
			c0.1,0,0.1,0,0.1,0.1c0,0,0,0,0,0c0.1,0,0.1,0,0.1,0.1l-29.5-31.8l-2.7,80.9C782.7,625.5,782.9,623,783.2,620.7z"/>
		<path class="st11" d="M870.1,611.1c7.1-19.1,12.6-32.9,15.3-38.1c13.9-26.5,78.6-77.4,65.3-111.6c0,0,0,0,0,0
			c-0.2-0.6-0.5-1.3-0.7-1.9c-4.3-13.6-18.8-10.7-18.8-10.7c11.8,4.5-7.7,18-32.1,42.6c-23.6,23.9-84.1,87.7-84.1,87.7l42.3,49.2
			L870.1,611.1z"/>
		<path class="st22" d="M871.5,607.5c-0.4,1.2-0.9,2.4-1.4,3.7l-12.8,17.2l-17.1-19.9L815,646.4c10.4,7.5,2.1,74.9-11.8,154.3
			C823.2,742.4,853.3,656,871.5,607.5z"/>
		<path d="M451.8,621c-25.2,18.8-65.8,45-83.8,44.2c-10.5-0.5-13.4,0.5-17.7-3.8c12.8,18.1,11,15.3,27.1,16.1
			c18,0.8,61.6-29.8,82.9-65.2C457.8,615.6,455,618.6,451.8,621z"/>
		<g>
			<polygon points="546,1079.8 397,861 -0.1,889.7 -0.1,1079.8 			"/>
		</g>
		<path class="st26" d="M319.6,503.3c10.7,1.3,5.9-5.4,1.9-7.8c-7.8-4.8-25.4-2.8-34.6,5.5c0.1,1,0.1,2.1,0.2,3.1
			C292,502.7,301.9,501.2,319.6,503.3z"/>
		<path class="st26" d="M597.5,750.2c9.1-35.3-21.6-84.8-21.6-84.8c3.5-21.6-51.4-266.9-84.8-304.8s-111.8-26.2-111.8-26.2
			c-66.7-8.1-101.9,58.6-109.2,77c-7.2,18-10.9,59.4-5.4,139.7c5.4,80.1-19,82.1-41.5,114.5s7.2,54.9,7.2,54.9
			c-9.1,32.4,8.9,73,8.9,73c12.8,16.3-8.9,41.5-8.9,41.5c5.1,21.1,74.7,5.4,101.9-1.6c8.1-1.9,14.2-8.5,16-16.6
			c5.3-25.1,5.1-74.6,4.1-110.8l-12,4.3l-2.6,1l0,0l0,0l12.8-48c0-0.6,0-0.9,0-0.9l0.2-0.1c0-0.1,0-0.3,0-0.4
			c-3.1-2.9-6.9-8.7-15.1-20.1c-19-26.2-31.6-45-33.4-53.2c-1.8-8.1-15.3-16.3-14.4-60.4c1-44.2-15.3-87.5,29.7-106.3
			s158.7,66.7,158.7,66.7l32.4,49.7c-0.2-0.2-13.7,28.7-32.6,14.2c0,0,0.4,20.3-5.9,39.9l-1.7,50.8c0,0,3.7,28.4-10.7,50.5l-5.5,8
			c-2.1,4.5-3.6,7.2-3.6,7.2c-18,52.2,8.1,68.5,8.1,68.5c-2.8,20,5.1,43.1,11.6,57.9c19.3-1.7,96.2-8.3,101.5-7.8
			c1.8,0.1,13.5,2.2,29.6,5.5C627.7,800.3,597.5,750.2,597.5,750.2z"/>
		<g>
			<path d="M433.2,851.1c-0.6,0-1-0.4-1-1c-0.1-33.8-5.5-82-30.2-119.7c-14.8-22.6-29.7-30.8-29.8-30.9c0,0-0.1,0-0.1-0.1
				c-14.5-10.8-33.4,12.2-33.6,12.4c-0.3,0.4-1,0.5-1.4,0.1c-0.4-0.3-0.5-1-0.1-1.4c0.2-0.3,5-6.2,11.9-10.8
				c9.3-6.2,17.7-6.9,24.4-2c1.2,0.7,15.7,9,30.4,31.4c25,38.2,30.5,86.9,30.6,121C434.2,850.6,433.8,851.1,433.2,851.1
				C433.2,851.1,433.2,851.1,433.2,851.1z"/>
		</g>
		<g>
			<path d="M713.9,866.4l21.1,1.3l6.4-32.3c-13.9,1.2-25.5,12.2-34.9,26.7C709.6,863.6,712.1,865,713.9,866.4z"/>
			<path d="M701.3,950.1c-9.5-1.9-19.1-3.7-26-4.5c-7.9,27.4-1.9,29.9-1.9,29.9c0.2,0,0.3,0,0.5,0l-0.3-0.2
				C684.2,967.2,693.4,958.7,701.3,950.1z"/>
		</g>
		<g>
			<path class="st32" d="M791,865.7c20.3-104.5,37.1-209.8,23.9-219.3l25.2-37.9L815,579.2c0,0,0,0,0.1-0.1L815,579
				c0,0-28.6-13.6-32.4,49.2v27.9c0,0-16.8,87.8-34.8,183.4C758.1,846,775.7,856.6,791,865.7z"/>
		</g>
		<g>
			<path d="M713.9,866.4l21.1,1.3l6.4-32.3c-13.9,1.2-25.5,12.2-34.9,26.7C709.6,863.6,712.1,865,713.9,866.4z"/>
			<path d="M702.2,950.1c-9.5-1.9-19.1-3.7-26-4.5c-7.9,27.4-1.9,29.9-1.9,29.9c0.2,0,0.3,0,0.5,0l0-0.4
				C685.5,966.9,694.3,958.7,702.2,950.1z"/>
		</g>
		<g>
			<path class="st19" d="M679.6,946.1c0.3,0,0.7,0.1,1,0.2C680.3,946.2,679.9,946.2,679.6,946.1z"/>
			<path class="st19" d="M681.1,946.4c0.3,0,0.6,0.1,1,0.2C681.8,946.5,681.4,946.4,681.1,946.4z"/>
			<path class="st19" d="M678.2,945.9c0.3,0,0.7,0.1,1,0.1C678.8,946,678.5,946,678.2,945.9z"/>
			<path class="st19" d="M682.9,946.7C682.9,946.7,682.9,946.7,682.9,946.7c-0.1,0-0.2,0-0.3,0C682.8,946.6,682.9,946.6,682.9,946.7
				z"/>
			<path class="st19" d="M676.8,945.7c0.3,0,0.7,0.1,1,0.1C677.4,945.8,677.1,945.8,676.8,945.7z"/>
			<path class="st34" d="M674.6,975.2l-0.8,0.3c-0.2,0-0.3,0-0.5,0c0,0-6-2.5,1.9-29.9c-4.3-0.5-7.7-0.7-9.4-0.4
				c-4.4,0.8-15.3,6.1-30.2,10c-21.2,40.5-51.8,80.3-95.6,116l5.9,8.7l94,0C640.9,1076.8,658,1030.7,674.6,975.2
				C674.1,975.6,675.1,974.8,674.6,975.2z"/>
			<path class="st19" d="M675.4,945.6c0.3,0,0.6,0.1,1,0.1C676.1,945.6,675.8,945.6,675.4,945.6z"/>
		</g>
		<path class="st19" d="M915.5,535.3c-0.8,0.9-1.5,1.8-2.3,2.7C914,537,914.8,536.2,915.5,535.3L915.5,535.3z"/>
		<g>
			<path class="st24" d="M685.3,947.1c-0.2,0-0.4-0.1-0.6-0.1C684.9,947,685.1,947,685.3,947.1z"/>
			<path class="st24" d="M699.1,949.6c-0.2,0-0.4-0.1-0.6-0.1C698.7,949.6,698.9,949.6,699.1,949.6z"/>
			<path class="st24" d="M682.9,946.7C682.9,946.7,682.9,946.7,682.9,946.7c0.1,0,0.2,0,0.4,0.1
				C683.2,946.7,683.1,946.7,682.9,946.7z"/>
			<path class="st24" d="M687.3,947.4C687.3,947.4,687.3,947.4,687.3,947.4C687.3,947.4,687.3,947.4,687.3,947.4z"/>
			<path class="st24" d="M690,947.9c-0.2,0-0.4-0.1-0.7-0.1C689.5,947.8,689.7,947.8,690,947.9z"/>
			<path class="st24" d="M696.9,949.2c-0.2,0-0.4-0.1-0.6-0.1C696.5,949.1,696.7,949.2,696.9,949.2z"/>
			<path class="st24" d="M694.2,948.7C694.2,948.7,694.1,948.7,694.2,948.7C694.1,948.7,694.2,948.7,694.2,948.7z"/>
			<path class="st24" d="M692.1,948.3c-0.2,0-0.4-0.1-0.7-0.1C691.7,948.2,691.9,948.2,692.1,948.3z"/>
			<g>
				<path class="st24" d="M711.9,937.4c0.7-0.9,1.4-1.9,2.1-2.8C713.3,935.6,712.6,936.5,711.9,937.4z"/>
				<path class="st24" d="M708.7,941.5c0.8-1,1.6-2,2.4-3C710.3,939.5,709.5,940.5,708.7,941.5z"/>
				<path class="st24" d="M722.8,921.8c0.8-1.3,1.6-2.5,2.3-3.8C724.3,919.2,723.6,920.5,722.8,921.8z"/>
				<path class="st24" d="M714.9,933.5c0.7-0.9,1.3-1.8,1.9-2.7C716.2,931.7,715.5,932.6,714.9,933.5z"/>
				<path class="st24" d="M705.2,945.6c0.9-1.1,1.9-2.2,2.8-3.3C707.1,943.4,706.2,944.5,705.2,945.6z"/>
				<path class="st24" d="M720.3,925.6c0.6-0.9,1.2-1.8,1.7-2.7C721.5,923.8,720.9,924.7,720.3,925.6z"/>
				<path class="st24" d="M717.7,929.5c0.6-0.9,1.2-1.8,1.8-2.6C718.9,927.8,718.3,928.6,717.7,929.5z"/>
				<path class="st24" d="M675.3,973.9c4.8-3.7,9.3-7.5,13.5-11.3C684.6,966.4,680.1,970.2,675.3,973.9z"/>
				<path class="st24" d="M689.2,962.2c0.9-0.8,1.7-1.6,2.6-2.4C690.9,960.5,690.1,961.3,689.2,962.2z"/>
				<path class="st24" d="M695,956.6c-0.8,0.8-1.5,1.5-2.3,2.3C693.5,958.1,694.2,957.4,695,956.6z"/>
				<path class="st24" d="M701.3,950c1.2-1.3,2.3-2.6,3.4-3.8C703.6,947.5,702.5,948.8,701.3,950z"/>
				<path class="st1" d="M674.5,975.8c-16.6,55.2-33.8,101.8-34.5,104l53-0.1l16.5-83.5L674.5,975.8z"/>
				<path class="st24" d="M699.1,952.4c0.7-0.8,1.5-1.5,2.2-2.3C700.6,950.8,699.8,951.6,699.1,952.4z"/>
				<path class="st24" d="M696,955.6c0.7-0.7,1.5-1.5,2.2-2.2C697.5,954.1,696.7,954.9,696,955.6z"/>
			</g>
		</g>
		<g>
			<path d="M831.1,1068.5c-0.2,0-0.3,0-0.5-0.1l-157.7-92.1c-0.5-0.3-0.6-0.9-0.4-1.4c0.3-0.5,0.9-0.6,1.4-0.4l157.7,92.1
				c0.5,0.3,0.6,0.9,0.4,1.4C831.8,1068.4,831.4,1068.5,831.1,1068.5z"/>
		</g>
	</g>
	<g>
		<path d="M311.9,422.7C311.9,422.7,311.9,422.7,311.9,422.7c-0.6,0-1-0.5-1-1.1c0.7-9.5,8.3-24.9,22.5-45.9
			c10.5-15.5,20.9-28.5,21-28.6c0.3-0.4,1-0.5,1.4-0.1c0.4,0.3,0.5,1,0.2,1.4c-0.4,0.5-41.3,51.4-43,73.4
			C312.9,422.3,312.4,422.7,311.9,422.7z"/>
	</g>
</g>
<path class="st1" d="M819.4,882.3L933,622l-17.1-20.8l32.4-9.9c0,0,0.4-0.6,1.1-1.8c0,0,0.1-0.1,0.1-0.1c0.1-0.2,0.2-0.4,0.4-0.6
	c0,0,0,0,0,0c0.1-0.1,0.1-0.2,0.2-0.4c0.3-0.4,0.5-0.8,0.8-1.3c0,0,0-0.1,0.1-0.1c1-1.6,2.2-3.5,3.7-5.8c0,0,0,0,0,0
	c9.3-14.6,26.4-41.7,36-58.7c0,0,0,0,0,0c0.2-0.4,0.5-0.8,0.7-1.3c0,0,0-0.1,0-0.1c0.2-0.4,0.5-0.8,0.7-1.2c0,0,0,0,0-0.1
	c0.2-0.4,0.4-0.8,0.7-1.2c0,0,0,0,0,0c1.5-2.8,2.8-5.1,3.7-7c0.7-1.5,1.2-2.7,1.3-3.4c1.8-8.5-47.3-46.9-47.3-46.9
	c8.3,21.4-13.9,49.3-35.1,73.8h0c-0.1,0.1-0.2,0.2-0.3,0.3c-0.6,0.7-1.3,1.5-1.9,2.2c0,0,0,0.1-0.1,0.1c0,0,0-0.1,0.1-0.1
	c-11.9,13.6-23,25.9-27.9,35.2c-9.6,18.3-55,148.7-82.2,227.6C795,821,791,832,779,859C792,866.8,815.5,880,819.4,882.3z"/>
<g>
	<path d="M870.1,767.6c-0.1,0-0.3,0-0.4-0.1c-0.5-0.2-0.7-0.8-0.5-1.3L932,622.1l-16.8-20.3c-0.2-0.3-0.3-0.6-0.2-0.9
		c0.1-0.3,0.3-0.6,0.7-0.7l32.2-9.6l26.9-43.1c0.3-0.5,0.9-0.6,1.4-0.3c0.5,0.3,0.6,0.9,0.3,1.4L949.3,592c-0.1,0.2-0.3,0.4-0.6,0.4
		l-31.1,9.3l16.3,19.6c0.2,0.3,0.3,0.7,0.1,1L871,767C870.8,767.4,870.4,767.6,870.1,767.6z"/>
</g>
</svg>
